<?xml version="1.0" standalone="no"?>
<!DOCTYPE svg PUBLIC "-//W3C//DTD SVG 20010904//EN"
 "http://www.w3.org/TR/2001/REC-SVG-20010904/DTD/svg10.dtd">
<svg version="1.0" xmlns="http://www.w3.org/2000/svg"
 width="421.000000pt" height="421.000000pt" viewBox="0 0 421.000000 421.000000"
 preserveAspectRatio="xMidYMid meet">
<metadata>
Created by potrace 1.14, written by Peter Selinger 2001-2017
</metadata>
<g transform="translate(0.000000,421.000000) scale(0.100000,-0.100000)"
fill="#000000" stroke="none">
<path d="M2008 3595 c-2 -2 -34 -6 -73 -9 -260 -25 -567 -183 -778 -401 -46
-47 -127 -150 -127 -161 0 -4 -6 -15 -14 -23 -26 -30 -114 -213 -122 -253 -1
-5 -2 -9 -4 -10 -1 -2 -3 -11 -6 -20 -7 -29 -11 -42 -17 -58 -4 -8 -9 -26 -11
-40 -5 -25 -10 -48 -22 -92 -3 -13 -7 -35 -9 -49 -2 -14 -9 -38 -14 -52 -6
-15 -8 -27 -6 -27 2 0 0 -12 -6 -27 -6 -16 -13 -37 -15 -48 -1 -11 -5 -31 -9
-45 -3 -14 -8 -47 -13 -75 -9 -62 -9 -664 1 -798 l6 -97 -43 -12 c-24 -6 -50
-16 -57 -22 -42 -33 -65 -156 -62 -339 2 -165 33 -218 128 -218 53 0 54 -1 78
-42 15 -25 31 -82 42 -142 33 -187 111 -375 163 -393 50 -17 247 3 272 28 12
12 41 19 95 24 89 8 119 20 111 44 -3 9 3 5 14 -9 19 -26 19 -26 152 -22 360
8 356 7 359 58 1 27 8 76 13 100 2 11 5 31 6 45 1 24 2 24 10 4 4 -11 11 -47
15 -80 3 -32 11 -71 16 -85 l10 -26 107 3 c300 8 331 15 348 72 11 41 11 41
13 52 3 23 21 8 21 -18 0 -15 7 -38 16 -50 15 -21 21 -23 93 -18 167 11 291
31 291 47 0 5 6 9 13 9 32 0 99 164 113 278 2 20 6 53 9 72 19 144 25 287 24
535 -5 735 -2 945 14 1005 2 8 9 33 15 55 6 22 14 60 17 85 10 72 20 129 29
158 24 78 29 231 11 308 -16 68 -54 164 -65 164 -4 0 -10 10 -14 23 -3 12 -27
45 -53 72 -27 28 -68 77 -93 110 -43 58 -110 129 -161 170 -48 39 -88 65 -99
65 -5 0 -10 5 -10 11 0 5 -4 7 -10 4 -5 -3 -10 -2 -10 2 0 10 -80 49 -92 45
-5 -1 -8 3 -8 10 0 6 -3 9 -6 6 -3 -4 -22 0 -42 9 -20 8 -44 17 -54 19 -10 2
-28 6 -40 9 -13 3 -54 8 -93 11 -38 3 -84 10 -101 15 -53 16 -76 20 -154 25
-41 3 -83 6 -92 8 -9 2 -18 3 -20 1z"/>
</g>
</svg>
